HIERARCHY
ROOT hip
{
  OFFSET 0 0 0
  CHANNELS 6 Xposition Yposition Zposition Zrotation Yrotation Xrotation
  JOINT abdomen
  {
    OFFSET 0 20.6881 -0.73152
    CHANNELS 3 Zrotation Xrotation Yrotation
    JOINT chest
    {
      OFFSET 0 11.7043 -0.48768
      CHANNELS 3 Zrotation Xrotation Yrotation
      JOINT neck
      {
        OFFSET 0 22.1894 -2.19456
        CHANNELS 3 Zrotation Xrotation Yrotation
        JOINT head
        {
          OFFSET -0.24384 7.07133 1.2192
          CHANNELS 3 Zrotation Xrotation Yrotation
          JOINT leftEye
          {
            OFFSET 4.14528 8.04674 8.04672
            CHANNELS 3 Zrotation Xrotation Yrotation
            End Site
            {
              OFFSET 1 0 0
            }
          }
          JOINT rightEye
          {
            OFFSET -3.6576 8.04674 8.04672
            CHANNELS 3 Zrotation Xrotation Yrotation
            End Site
            {
              OFFSET 1 0 0
            }
          }
        }
      }
      JOINT rCollar
      {
        OFFSET -2.68224 19.2634 -4.8768
        CHANNELS 3 Zrotation Xrotation Yrotation
        JOINT rShldr
        {
          OFFSET -8.77824 -1.95073 1.46304
          CHANNELS 3 Zrotation Xrotation Yrotation
          JOINT rForeArm
          {
            OFFSET -28.1742 -1.7115 0.48768
            CHANNELS 3 Zrotation Xrotation Yrotation
            JOINT rHand
            {
              OFFSET -22.5879 0.773209 7.07136
              CHANNELS 3 Zrotation Xrotation Yrotation
              JOINT rThumb1
              {
                OFFSET -1.2192 -0.487915 3.41376
                CHANNELS 3 Zrotation Xrotation Yrotation
                JOINT rThumb2
                {
                  OFFSET -3.37035 -0.52449 3.41376
                  CHANNELS 3 Zrotation Xrotation Yrotation
                  End Site
                  {
                    OFFSET -1.78271 -1.18214 1.43049
                  }
                }
              }
              JOINT rIndex1
              {
                OFFSET -7.75947 0.938293 5.60832
                CHANNELS 3 Zrotation Xrotation Yrotation
                JOINT rIndex2
                {
                  OFFSET -2.54057 -0.884171 1.56538
                  CHANNELS 3 Zrotation Xrotation Yrotation
                  End Site
                  {
                    OFFSET -1.62519 -0.234802 1.16502
                  }
                }
              }
              JOINT rMid1
              {
                OFFSET -8.24714 1.18213 3.41376
                CHANNELS 3 Zrotation Xrotation Yrotation
                JOINT rMid2
                {
                  OFFSET -3.10165 -0.590103 1.0647
                  CHANNELS 3 Zrotation Xrotation Yrotation
                  End Site
                  {
                    OFFSET -2.48547 -0.328903 0.83742
                  }
                }
              }
              JOINT rRing1
              {
                OFFSET -8.82822 0.546677 1.51678
                CHANNELS 3 Zrotation Xrotation Yrotation
                JOINT rRing2
                {
                  OFFSET -2.60934 -0.819778 -0.0198488
                  CHANNELS 3 Zrotation Xrotation Yrotation
                  End Site
                  {
                    OFFSET -2.33842 -0.294052 0.168128
                  }
                }
              }
              JOINT rPinky1
              {
                OFFSET -8.27202 -0.0477905 -0.4584
                CHANNELS 3 Zrotation Xrotation Yrotation
                JOINT rPinky2
                {
                  OFFSET -1.82734 -0.647385 -0.700984
                  CHANNELS 3 Zrotation Xrotation Yrotation
                  End Site
                  {
                    OFFSET -1.69225 -0.51767 -0.607171
                  }
                }
              }
            }
          }
        }
      }
      JOINT lCollar
      {
        OFFSET 2.68224 19.2634 -4.8768
        CHANNELS 3 Zrotation Xrotation Yrotation
        JOINT lShldr
        {
          OFFSET 8.77824 -1.95073 1.46304
          CHANNELS 3 Zrotation Xrotation Yrotation
          JOINT lForeArm
          {
            OFFSET 28.1742 -1.7115 0.48768
            CHANNELS 3 Zrotation Xrotation Yrotation
            JOINT lHand
            {
              OFFSET 22.5879 0.773209 7.07136
              CHANNELS 3 Zrotation Xrotation Yrotation
              JOINT lThumb1
              {
                OFFSET 1.2192 -0.487915 3.41376
                CHANNELS 3 Zrotation Xrotation Yrotation
                JOINT lThumb2
                {
                  OFFSET 3.37035 -0.52449 3.41376
                  CHANNELS 3 Zrotation Xrotation Yrotation
                  End Site
                  {
                    OFFSET 1.78271 -1.18214 1.43049
                  }
                }
              }
              JOINT lIndex1
              {
                OFFSET 7.75947 0.938293 5.60832
                CHANNELS 3 Zrotation Xrotation Yrotation
                JOINT lIndex2
                {
                  OFFSET 2.54057 -0.884171 1.56538
                  CHANNELS 3 Zrotation Xrotation Yrotation
                  End Site
                  {
                    OFFSET 1.62519 -0.234802 1.16502
                  }
                }
              }
              JOINT lMid1
              {
                OFFSET 8.24714 1.18213 3.41376
                CHANNELS 3 Zrotation Xrotation Yrotation
                JOINT lMid2
                {
                  OFFSET 3.10165 -0.590103 1.0647
                  CHANNELS 3 Zrotation Xrotation Yrotation
                  End Site
                  {
                    OFFSET 2.48547 -0.328903 0.83742
                  }
                }
              }
              JOINT lRing1
              {
                OFFSET 8.82822 0.546677 1.51678
                CHANNELS 3 Zrotation Xrotation Yrotation
                JOINT lRing2
                {
                  OFFSET 2.60934 -0.819778 -0.0198488
                  CHANNELS 3 Zrotation Xrotation Yrotation
                  End Site
                  {
                    OFFSET 2.33842 -0.294052 0.168128
                  }
                }
              }
              JOINT lPinky1
              {
                OFFSET 8.27202 -0.0477905 -0.4584
                CHANNELS 3 Zrotation Xrotation Yrotation
                JOINT lPinky2
                {
                  OFFSET 1.82734 -0.647385 -0.700984
                  CHANNELS 3 Zrotation Xrotation Yrotation
                  End Site
                  {
                    OFFSET 1.69225 -0.51767 -0.607171
                  }
                }
              }
            }
          }
        }
      }
    }
  }
  JOINT rButtock
  {
    OFFSET -8.77824 4.35084 1.2192
    CHANNELS 3 Zrotation Xrotation Yrotation
    JOINT rThigh
    {
      OFFSET 0 -1.70687 -2.19456
      CHANNELS 3 Zrotation Xrotation Yrotation
      JOINT rShin
      {
        OFFSET 0 -36.8199 0.73152
        CHANNELS 3 Zrotation Xrotation Yrotation
        JOINT rFoot
        {
          OFFSET 0.73152 -45.1104 -5.12064
          CHANNELS 3 Zrotation Xrotation Yrotation
          End Site
          {
            OFFSET -1.1221 -3.69964 12.103
          }
        }
      }
    }
  }
  JOINT lButtock
  {
    OFFSET 8.77824 4.35084 1.2192
    CHANNELS 3 Zrotation Xrotation Yrotation
    JOINT lThigh
    {
      OFFSET 0 -1.70687 -2.19456
      CHANNELS 3 Zrotation Xrotation Yrotation
      JOINT lShin
      {
        OFFSET 0 -36.8199 0.73152
        CHANNELS 3 Zrotation Xrotation Yrotation
        JOINT lFoot
        {
          OFFSET -0.73152 -45.1104 -5.12064
          CHANNELS 3 Zrotation Xrotation Yrotation
          End Site
          {
            OFFSET 1.1221 -3.69964 12.103
          }
        }
      }
    }
  }
}
MOTION
Frames:	8
Frame Time:	0.03333
-16.578200000000002 67.5999 -36.361 -178.001281 -58.610404 178.65318 -3.122219 15.123821 -92.796031 6.719568 9.8e-05 104.484267 -5.011805 37.132088 -146.350817 31.825357 40.238517 98.723833 0.002841 -0.0 -0.002123 -0.002847 0.0 -0.001526 0.585597 -3.666907 -0.795492 64.707339 0.367858 82.357345 -150.002218 -48.172466 59.208858 179.187727 -21.418305 144.027843 -171.183074 -8.866333 89.95299 -61.324776 -4.242479 15.794766 -159.214333 -31.606074 122.663164 14.681116 -4.036856 -10.257216 7.160537 -22.431699 -2.865989 -3.271739 17.280803 3.293322 0.004786 1.34915 0.423352 7.551542 25.185542 3.758026 63.117762 87.726348 -23.189533 -167.698907 67.456822 -146.746517 152.046507 14.457786 -157.459516 -106.125682 19.956795 159.836156 -94.807812 -25.075236 19.499939 127.511249 56.8874 -104.1996 0.968772 0.954117 -0.1567 131.8043 -30.282784 -115.762082 155.962903 -25.72427 -122.287194 -15.67726 -7.426243 10.608858 55.963185 58.832112 -48.702964 -3.574475 -0.439358 -0.051816 145.123265 1.231985 179.516111 -0.830403 81.675149 -11.518752 7.117842 -15.657338 6.7021 131.641051 -24.476667 130.087787 -179.995389 75.748555 -0.004323 160.676285 10.280807 -107.550113 -108.472626 -15.468422 -65.22986 -108.125418 34.518354 -160.386395 -179.997924 75.750189 -0.002304 -172.069511 26.199896 130.177299 84.369202 -14.329367 154.213783 -152.324283 32.884101 -134.468274
-17.688100000000002 67.8562 -37.8339 -177.118393 -61.502424 176.788149 -3.200216 13.910178 -130.759329 3.473305 4.239066 140.352104 9.885391 25.154161 82.464508 -38.058983 8.363329 -117.581463 -0.002135 -0.0 0.002276 -0.002135 -0.0 0.002276 -151.757826 15.640602 157.117241 -87.351688 -22.721511 -69.603192 -105.73724 -79.97805 -5.232213 -5.597501 -10.786326 -3.574475 53.083489 -42.119434 14.008656 -127.375967 -83.436805 -178.887225 11.361344 -20.19098 -4.898776 -176.434205 -35.85557 106.576958 -1.980197 5.578789 1.163462 -165.240213 -10.928272 143.892922 0.001103 0.038912 0.012412 -155.573702 -3.48082 172.272906 -168.658127 80.727093 -147.674156 -4.307799 -13.119078 -6.075511 154.78055 0.959764 -160.860916 -114.25332 1.643788 143.710222 -172.239841 -72.573581 -65.021827 169.945862 5.369638 -141.189245 165.874927 -3.546791 -89.706836 -137.629078 -48.964725 -92.223008 82.278484 42.539493 -68.685737 0.022827 9.751567 2.839199 157.394709 3.036553 -141.5005 166.744955 -15.370673 -143.755079 0.011871 3.919818 -1.232243 144.350844 54.915583 -158.361286 15.11352 -27.799737 14.415496 64.620216 -54.732879 65.022697 0.000323 -0.000863 4.1e-05 -40.586734 -58.812613 -102.552456 -98.286669 23.416354 -1.275897 70.188689 -56.806995 163.286373 0.000323 -0.000863 4.1e-05 10.773096 -44.98368 22.569848 -3.475333 80.298693 77.087855 -126.019767 32.107335 14.175828
-18.6737 68.2837 -39.321400000000004 -175.535721 -64.525494 174.445029 -5.771799 13.594931 146.05741 -7.040401 1.527897 -138.339056 -12.40696 29.454427 -83.226559 40.817485 4.91339 46.613091 0.000212 -0.0 -0.001731 0.000212 -0.0 -0.001731 -1.161175 6.437807 1.501379 66.924974 -8.013078 85.743063 -176.821706 -37.871124 40.134572 -177.0636 -4.502276 142.968589 -6.835588 6.581913 1.432004 -133.606417 -34.739448 113.831318 171.716865 -64.676867 111.470475 29.018574 -25.660775 -8.640027 -35.589603 51.479084 29.417093 -162.774404 -3.774498 143.150531 -145.113498 -0.438312 -178.991312 -148.984467 -40.10663 -171.581363 -156.987623 55.992561 -150.377659 13.394536 35.874416 5.708383 155.991324 -6.824286 -162.529062 -100.443855 14.476158 133.481363 -74.396465 -74.097864 29.778401 167.791795 14.110415 -139.317202 -0.775125 -0.766232 0.113495 -37.89437 -62.810279 18.175106 2.459801 3.880236 -1.446462 -25.644498 -20.608282 0.873992 140.044835 36.957474 -128.255234 -177.571753 -52.869497 -139.580457 0.072068 -3.883613 1.224505 154.782779 3.193636 -171.446931 169.756327 81.528587 146.862139 157.588698 41.714729 147.344061 -0.00023 -0.00222 -0.000984 -44.960339 -57.165114 28.244811 90.561095 22.669694 -174.423739 16.68028 -19.590547 106.370149 -0.003508 -0.001061 -0.002414 9.96971 -44.945005 134.262953 84.086497 -10.452965 155.307806 -52.166433 66.568317 162.926051
-19.8902 68.74749999999999 -40.5901 -172.433555 -67.505268 170.86397 -1.671194 14.163817 -125.015329 3.6314 5.527007 129.080122 -13.0059 28.186517 -75.457326 39.171453 1.000424 40.327805 -0.000384 0.0 -0.000532 -0.000597 0.0 -0.003838 -159.072194 -55.250734 172.116976 -99.996035 -6.737012 -141.893889 24.65743 85.854497 -161.334052 -178.457376 -4.336038 143.095402 -17.070309 15.496033 4.877076 -9.023659 8.000249 16.640439 -153.047649 -20.312388 121.639374 -174.549132 -40.156636 116.370937 -12.069516 27.705354 8.518518 12.752602 -28.623043 -1.445002 -145.123222 0.797293 -179.378366 -148.111933 80.543188 162.304282 -146.015262 14.770333 -142.561888 -1.306883 -8.305944 -4.852421 127.880435 56.421672 -131.676448 93.61392 15.783382 -21.958901 2.349095 59.441986 91.667066 174.700438 -3.300639 -142.759693 6.762421 6.514678 -1.413279 -23.786242 -31.861872 10.672192 7.031669 10.473235 -4.392049 91.782122 46.475256 -71.038707 164.571653 -19.07174 -144.716849 162.919651 -3.545681 -142.837547 0.011595 3.966811 -1.246646 -8.455306 16.839597 -2.293381 67.521517 -51.770201 66.072365 -1.581116 -4.712977 2.345509 0.004506 -0.001072 0.003226 -43.621663 -55.988574 -9.579763 77.933922 61.707138 -175.43251 124.424519 -49.432821 -132.834095 179.997648 75.749138 0.001977 -170.301936 31.351344 -169.834545 -18.646377 -81.215942 -126.488543 -147.940794 21.415156 28.711202
-20.9711 69.3612 -41.814099999999996 -170.030569 -70.160709 167.865019 -1.985409 17.486523 -24.85572 8.161012 -7.174788 27.157188 5.327632 35.699577 147.29002 -20.183004 41.410671 -178.194946 -0.002417 -0.0 0.001876 0.002804 -0.0 -0.003334 -150.180544 21.496322 155.288448 133.109219 16.597986 -138.893761 -157.526956 -56.867335 52.62079 172.717266 -24.826109 142.741749 -175.838617 -13.473984 89.757782 0.454864 -56.808439 6.04117 -12.430252 17.206149 8.2172 8.549198 1.381645 -0.501542 -153.393999 13.451651 138.914481 -127.018513 53.013601 116.412205 0.001233 2.615021 0.820869 3.671745 42.873369 8.165955 -89.034384 -49.910602 -87.371929 -136.077943 -14.399521 -134.119231 -3.763626 -33.564691 6.490491 72.761003 -19.630189 -171.10031 68.414446 25.048735 28.768471 -160.351497 -61.114385 -136.255758 -178.828218 -18.565509 -89.074151 -169.697691 -28.277943 -103.727711 9.814806 14.083595 -6.325291 172.345598 -26.034536 -108.83911 157.551078 2.596765 -141.593401 166.696849 -15.223224 -143.749145 145.090756 -1.980436 178.50589 149.006654 -39.588664 171.744592 148.772587 24.30258 144.914075 -90.162275 84.980366 51.676721 -179.976262 75.74962 -0.017569 155.536991 11.526381 92.574165 69.899072 -4.337156 -62.813055 39.590628 -16.033034 -25.611229 -0.000333 -0.000307 -0.000434 10.333487 -41.933567 170.957697 75.195918 -49.413918 173.760125 26.401406 45.180055 87.1647
-22.070899999999998 69.8767 -43.1057 -165.915052 -72.746181 163.59976 -1.34077 12.870732 -148.116625 -1.078322 7.664665 147.64204 1.973624 37.054483 163.463378 -9.644182 44.64163 162.403166 -0.002562 -0.0 0.002334 -0.002562 -0.0 0.002334 -157.078561 -15.299905 164.194619 106.098157 39.362087 -96.627193 173.325717 -58.127157 24.804957 175.590244 -10.521018 143.802134 -27.382326 22.959746 9.633328 27.550783 -26.587413 1.284369 147.096061 -73.17875 91.991438 -12.629104 38.661242 8.756384 -136.703076 40.778737 125.323624 -163.080683 -4.65011 143.02912 -8.1e-05 -0.023284 -0.007372 -140.369494 60.448801 154.525297 15.382718 53.67592 12.082503 -137.696573 -15.441035 -134.299077 150.021998 22.031506 -155.10799 -103.125348 12.935249 166.194349 -96.785588 -84.687838 4.562469 175.771608 -1.050294 -142.610741 126.173978 28.024267 -74.828138 -104.667057 -50.331584 -58.239893 28.328913 31.246252 -20.856218 47.636334 45.914731 -32.453991 175.323783 -49.39301 -144.261162 -113.545927 -78.091233 -83.695817 -0.000758 0.281915 -0.088442 146.865758 48.847626 -161.366785 71.640214 -51.809382 70.15045 137.865286 -10.868778 135.837466 0.014313 -0.000537 0.010502 -39.805168 -52.95618 -55.199385 -28.968261 67.622644 157.417522 -158.746806 30.488264 121.681279 0.000465 -0.000837 0.000294 11.69757 -38.378589 -41.604926 -78.641758 30.622164 170.486743 -162.094172 20.228032 46.659078
-23.1859 70.4456 -44.2693 -163.323413 -74.280368 160.649596 -1.540783 16.430878 -24.600652 9.879918 -6.61711 23.423143 -12.772432 21.844705 -40.059874 26.947195 -15.455993 7.906491 0.001589 -0.0 -0.002317 0.001589 -0.0 -0.002317 -5.584768 24.190146 6.719589 -136.660521 11.551217 106.489985 3.773843 -2.5029 -148.491042 171.075309 -19.110329 143.329299 -2.436595 2.388332 0.423527 53.664259 -71.990066 -9.561371 -146.309977 -7.972101 119.140365 -36.70682 51.47081 22.525033 -114.0381 55.516039 104.394869 -156.294514 14.113051 140.008107 -142.555339 30.059838 170.472674 9.206309 28.813218 -4.949694 -102.059163 -45.855492 -100.246017 -37.589834 -48.066982 -39.158728 156.460033 -10.265854 -163.220073 71.120761 1.938439 46.855218 -12.713142 70.392803 110.44052 176.865148 -2.630059 -142.838424 173.694173 -11.363611 -89.894725 154.234969 3.550371 -81.140755 39.320774 37.124506 -30.267798 178.179082 -30.86882 -109.423183 6.966811 17.813913 -4.561599 171.76142 -30.662421 -144.134122 -0.005349 1.503694 -0.47187 -9.853601 4.673441 -0.535785 -16.240428 56.866865 -12.447553 111.726736 -44.720019 109.69535 0.000373 0.000271 -0.000381 -38.637934 -52.792335 -158.472364 -64.168688 -32.730966 -57.473849 57.573145 -5.097368 -169.94991 179.997037 75.750649 0.003653 -169.622932 36.016372 149.625312 76.610309 -43.065697 162.169504 -143.739126 60.800275 -122.983296
-24.333299999999998 70.84 -45.3831 -161.614688 -75.868847 158.765544 -1.655559 15.589329 -31.648509 10.608977 -4.940545 29.543136 -12.403799 34.88227 -123.541448 32.459954 29.553674 79.266308 0.001546 0.0 0.00086 0.001546 0.0 0.00086 -155.995979 -6.853502 162.533938 118.36922 47.430083 -122.821526 -4.605733 55.774318 124.834063 -7.106826 25.720225 1.152497 -6.153388 5.944361 1.254747 -62.545633 25.73233 58.803646 -132.899252 12.703419 111.166801 12.077521 -7.749186 -9.475222 -3.296127 9.062897 1.998691 68.37188 -76.746948 40.532281 -145.123086 1.173634 -179.495342 11.354824 18.05471 -6.901804 -21.568133 -34.736422 -20.707106 1.128162 -5.301857 -1.96358 0.293284 1.726032 -0.388277 -85.899211 18.868524 -42.168912 -167.626459 -60.34086 -57.661965 174.825991 1.681712 -142.270303 -179.185215 -18.232799 -89.134587 34.307726 -28.005867 0.950622 -44.978729 -63.677441 -4.10237 150.583193 -4.891745 -113.915967 -12.216154 -37.823008 3.20335 -4.881966 -5.377504 0.604182 5.886455 -39.764159 15.306874 -13.679591 -9.501357 2.425858 146.097338 15.044867 142.637182 104.530202 -46.405787 103.20697 -179.990485 75.749162 -0.009433 155.617296 16.513216 -158.709391 -11.405688 -51.368438 125.756983 112.006219 2.03194 -38.293319 -179.998308 75.748981 -0.001221 -167.922412 39.440123 -3.310879 -51.6334 67.669338 -34.091736 26.682616 33.147063 94.726374
